<?xml version="1.0" encoding="UTF-8"?>
<svg xmlns="http://www.w3.org/2000/svg" xmlns:xlink="http://www.w3.org/1999/xlink" viewBox="0 0 24 24" width="24px" height="24px">
<g id="surface7368746">
<path style=" stroke:none;fill-rule:nonzero;fill:rgb(100%,100%,100%);fill-opacity:1;" d="M 12 2 C 6.484375 2 2 6.484375 2 12 C 2 17.515625 6.484375 22 12 22 C 17.515625 22 22 17.515625 22 12 C 22 6.484375 17.515625 2 12 2 Z M 12 5 C 15.859375 5 19 8.140625 19 12 L 19 12.75 C 19 14.265625 17.765625 15.5 16.25 15.5 C 15.367188 15.5 14.582031 15.082031 14.082031 14.433594 C 13.488281 15.089844 12.664062 15.5 11.75 15.5 C 9.957031 15.5 8.5 13.929688 8.5 12 C 8.5 10.070312 9.957031 8.5 11.75 8.5 C 12.40625 8.5 13.011719 8.710938 13.523438 9.070312 C 13.605469 8.746094 13.898438 8.5 14.25 8.5 C 14.664062 8.5 15 8.835938 15 9.25 L 15 12.75 C 15 13.441406 15.5625 14 16.25 14 C 16.9375 14 17.5 13.441406 17.5 12.75 L 17.5 12 C 17.5 8.96875 15.03125 6.5 12 6.5 C 8.96875 6.5 6.5 8.96875 6.5 12 C 6.5 15.03125 8.96875 17.5 12 17.5 C 12.664062 17.5 13.316406 17.382812 13.933594 17.152344 C 14.320312 17.003906 14.753906 17.203125 14.898438 17.589844 C 15.042969 17.976562 14.847656 18.410156 14.460938 18.554688 C 13.675781 18.851562 12.847656 19 12 19 C 8.140625 19 5 15.859375 5 12 C 5 8.140625 8.140625 5 12 5 Z M 11.75 10 C 10.785156 10 10 10.894531 10 12 C 10 13.105469 10.785156 14 11.75 14 C 12.714844 14 13.5 13.105469 13.5 12 C 13.5 10.894531 12.714844 10 11.75 10 Z M 11.75 10 "/>
</g>
</svg>
