<?xml version="1.0" encoding="UTF-8"?>
<svg xmlns="http://www.w3.org/2000/svg" xmlns:xlink="http://www.w3.org/1999/xlink" viewBox="0 0 24 24" width="24px" height="24px">
<g id="surface266554442">
<path style=" stroke:none;fill-rule:nonzero;fill:rgb(100%,100%,100%);fill-opacity:1;" d="M 12 2 C 6.484375 2 2 6.484375 2 12 C 2 16.324219 4.761719 20.003906 8.613281 21.398438 C 8.574219 20.789062 8.5 19.609375 8.5 19.207031 C 8.5 18.207031 8.613281 17.90625 8.613281 17.90625 L 9.746094 13.191406 C 9.582031 12.703125 9.5 12.152344 9.5 11.640625 C 9.5 10.695312 10.109375 9.75 11 9.75 C 11.660156 9.75 12.25 10.25 12.25 11.226562 C 12.25 11.515625 12.210938 11.855469 12.109375 12.253906 L 11.726562 13.765625 C 11.613281 14.199219 11.523438 15.03125 11.898438 15.519531 C 12.109375 15.796875 12.476562 15.964844 13 16 C 15.0625 16 16 13.796875 16 11.75 C 16 7.617188 12.410156 7.5 12 7.5 C 9.519531 7.5 7.5 9.351562 7.5 11.625 C 7.5 12.59375 7.800781 13.304688 8.15625 13.816406 C 8.230469 13.921875 8.257812 14.046875 8.226562 14.167969 L 7.949219 15.328125 C 7.910156 15.492188 7.707031 15.558594 7.585938 15.441406 C 6.574219 14.472656 6 13.113281 6 11.625 C 6 8.523438 8.691406 6 12 6 C 15.421875 6 18 8.417969 18 11.625 C 18 14.863281 15.867188 17.5 13.25 17.5 C 12.28125 17.5 11.519531 17.238281 10.980469 16.726562 L 10.464844 18.765625 C 10.203125 19.710938 9.886719 20.574219 9.0625 21.558594 C 9.992188 21.84375 10.976562 22 12 22 C 17.515625 22 22 17.515625 22 12 C 22 6.484375 17.515625 2 12 2 Z M 12 2 "/>
</g>
</svg>
