<?xml version="1.0" encoding="UTF-8"?>
<svg xmlns="http://www.w3.org/2000/svg" xmlns:xlink="http://www.w3.org/1999/xlink" viewBox="0 0 24 24" width="24px" height="24px">
<g id="surface266556247">
<path style=" stroke:none;fill-rule:nonzero;fill:rgb(100%,100%,100%);fill-opacity:1;" d="M 11.929688 4.25 C 8.753906 4.25 5.800781 4.476562 4.117188 4.828125 C 4.113281 4.828125 4.109375 4.828125 4.105469 4.832031 C 2.835938 5.117188 1.644531 6.023438 1.390625 7.445312 C 1.390625 7.449219 1.390625 7.449219 1.390625 7.453125 C 1.199219 8.601562 1 10.09375 1 12.25 C 1 14.402344 1.199219 15.855469 1.441406 17.0625 C 1.699219 18.445312 2.867188 19.382812 4.15625 19.667969 C 4.160156 19.671875 4.167969 19.671875 4.171875 19.671875 C 5.929688 20.019531 8.800781 20.25 11.976562 20.25 C 15.152344 20.25 18.019531 20.019531 19.777344 19.671875 C 19.785156 19.671875 19.792969 19.671875 19.796875 19.667969 C 21.066406 19.382812 22.261719 18.476562 22.511719 17.050781 C 22.511719 17.050781 22.515625 17.046875 22.515625 17.042969 C 22.703125 15.871094 22.953125 14.378906 23 12.21875 C 23 12.214844 23 12.207031 23 12.203125 C 23 10.042969 22.753906 8.539062 22.511719 7.347656 C 22.257812 5.964844 21.085938 5.023438 19.796875 4.734375 C 19.777344 4.730469 19.757812 4.726562 19.738281 4.726562 C 18.023438 4.484375 15.105469 4.25 11.929688 4.25 Z M 10.078125 8.5 C 10.261719 8.496094 10.453125 8.539062 10.632812 8.640625 L 14.9375 11.074219 C 15.660156 11.484375 15.660156 12.519531 14.9375 12.925781 L 10.632812 15.359375 C 9.914062 15.765625 9.019531 15.25 9.019531 14.429688 L 9.019531 9.570312 C 9.019531 8.953125 9.523438 8.511719 10.078125 8.5 Z M 10.078125 8.5 "/>
</g>
</svg>
