<?xml version="1.0" encoding="UTF-8"?>
<svg xmlns="http://www.w3.org/2000/svg" xmlns:xlink="http://www.w3.org/1999/xlink" viewBox="0 0 24 24" width="24px" height="24px">
<g id="surface7763657">
<path style=" stroke:none;fill-rule:nonzero;fill:rgb(100%,100%,100%);fill-opacity:1;" d="M 12 2.003906 C 11.339844 2.003906 10.679688 2.253906 10.183594 2.753906 L 3.933594 9 L 2.238281 9 C 1.863281 9 1.515625 9.167969 1.277344 9.457031 C 1.035156 9.746094 0.941406 10.121094 1.015625 10.488281 L 2.753906 19.375 C 3.050781 20.894531 4.390625 22 5.941406 22 L 18.050781 22 C 19.601562 22 20.941406 20.894531 21.238281 19.375 L 22.976562 10.488281 C 23.046875 10.121094 22.953125 9.742188 22.714844 9.453125 C 22.476562 9.167969 22.125 9 21.75 9 L 20.066406 9 L 13.816406 2.753906 C 13.316406 2.253906 12.660156 2.003906 12 2.003906 Z M 12 3.496094 C 12.273438 3.496094 12.542969 3.601562 12.753906 3.8125 L 17.941406 9 L 6.054688 9 L 11.242188 3.8125 C 11.453125 3.601562 11.726562 3.496094 12 3.496094 Z M 10.25 12.5 C 10.664062 12.5 11 12.835938 11 13.25 L 11 17.75 C 11 18.164062 10.664062 18.5 10.25 18.5 C 9.835938 18.5 9.5 18.164062 9.5 17.75 L 9.5 13.25 C 9.5 12.835938 9.835938 12.5 10.25 12.5 Z M 13.75 12.5 C 14.164062 12.5 14.5 12.835938 14.5 13.25 L 14.5 17.75 C 14.5 18.164062 14.164062 18.5 13.75 18.5 C 13.335938 18.5 13 18.164062 13 17.75 L 13 13.25 C 13 12.835938 13.335938 12.5 13.75 12.5 Z M 6.320312 12.503906 C 6.664062 12.535156 6.953125 12.808594 6.996094 13.167969 L 7.496094 17.667969 C 7.539062 18.078125 7.246094 18.449219 6.832031 18.496094 C 6.804688 18.5 6.777344 18.5 6.75 18.5 C 6.371094 18.5 6.046875 18.214844 6.003906 17.832031 L 5.503906 13.332031 C 5.460938 12.921875 5.753906 12.550781 6.167969 12.503906 C 6.21875 12.5 6.269531 12.5 6.320312 12.503906 Z M 17.679688 12.503906 C 17.730469 12.5 17.78125 12.5 17.832031 12.503906 C 18.246094 12.550781 18.539062 12.921875 18.496094 13.332031 L 17.996094 17.832031 C 17.953125 18.214844 17.628906 18.5 17.25 18.5 C 17.222656 18.5 17.195312 18.5 17.167969 18.496094 C 16.753906 18.449219 16.460938 18.078125 16.503906 17.667969 L 17.003906 13.167969 C 17.046875 12.808594 17.335938 12.535156 17.679688 12.503906 Z M 17.679688 12.503906 "/>
</g>
</svg>
