<?xml version="1.0" encoding="UTF-8"?>
<svg xmlns="http://www.w3.org/2000/svg" xmlns:xlink="http://www.w3.org/1999/xlink" viewBox="0 0 24 24" width="24px" height="24px">
<g id="surface13306577">
<path style=" stroke:none;fill-rule:nonzero;fill:rgb(100%,100%,100%);fill-opacity:1;" d="M 11.457031 3.3125 L 12.316406 5.339844 C 12.691406 6.222656 12.484375 7.261719 11.804688 7.910156 L 10.199219 9.433594 C 10.015625 9.605469 9.921875 9.855469 9.964844 10.101562 C 10.117188 11.039062 10.460938 11.96875 10.992188 12.882812 C 11.523438 13.796875 12.171875 14.574219 12.933594 15.214844 C 13.136719 15.382812 13.414062 15.425781 13.664062 15.34375 L 15.539062 14.71875 C 16.402344 14.429688 17.339844 14.761719 17.871094 15.539062 L 19.101562 17.347656 C 19.71875 18.253906 19.605469 19.5 18.84375 20.265625 L 18.027344 21.085938 C 17.210938 21.902344 16.050781 22.199219 14.972656 21.863281 C 12.433594 21.070312 10.101562 18.71875 7.972656 14.808594 C 5.839844 10.894531 5.085938 7.570312 5.714844 4.84375 C 5.976562 3.695312 6.792969 2.777344 7.863281 2.4375 L 8.9375 2.09375 C 9.949219 1.773438 11.027344 2.292969 11.457031 3.3125 Z M 11.457031 3.3125 "/>
</g>
</svg>
